<?xml version="1.0" encoding="UTF-8"?>
<svg xmlns="http://www.w3.org/2000/svg" xmlns:xlink="http://www.w3.org/1999/xlink" viewBox="0 0 19 19" width="19px" height="19px">
<g id="surface143168667">
<path style=" stroke:none;fill-rule:nonzero;fill:rgb(100%,100%,100%);fill-opacity:1;" d="M 17.53125 2.488281 C 17.246094 2.25 16.800781 2.214844 16.335938 2.398438 C 15.847656 2.59375 2.554688 8.296875 2.015625 8.527344 C 1.917969 8.5625 1.058594 8.882812 1.144531 9.597656 C 1.226562 10.242188 1.914062 10.507812 2 10.539062 L 5.378906 11.695312 C 5.605469 12.445312 6.429688 15.195312 6.613281 15.785156 C 6.726562 16.152344 6.914062 16.632812 7.238281 16.734375 C 7.523438 16.84375 7.808594 16.742188 7.992188 16.597656 L 10.058594 14.683594 L 13.394531 17.28125 L 13.472656 17.332031 C 13.699219 17.429688 13.917969 17.480469 14.125 17.480469 C 14.285156 17.480469 14.4375 17.449219 14.585938 17.390625 C 15.082031 17.183594 15.285156 16.710938 15.304688 16.65625 L 17.796875 3.707031 C 17.949219 3.015625 17.738281 2.664062 17.53125 2.488281 Z M 8.359375 12.160156 L 7.21875 15.199219 L 6.078125 11.398438 L 14.820312 4.941406 Z M 8.359375 12.160156 "/>
</g>
</svg>
